<svg width="173" height="164" viewBox="0 0 173 164" fill="none" xmlns="http://www.w3.org/2000/svg">
<path d="M84.9005 6.15538H2.91577V56.9855H84.9005V6.15538Z" fill="#FAFAFA"/>
<path d="M65.1049 42.9063C59.4205 40.7487 52.8836 46.719 47.3086 44.2855C44.0646 42.8685 42.5973 39.1919 41.0055 36.0254C39.4138 32.8589 36.6791 29.5186 33.1598 29.8852C29.6405 30.2517 26.7436 34.3855 23.3148 33.3804C21.1534 32.7569 20.0747 30.3575 19.5428 28.1697C19.0109 25.9818 18.6149 23.5635 16.9741 22.0294C15.3332 20.4953 11.8932 20.8958 11.6367 23.163V50.1084H75.7609C75.7609 50.1084 67.0739 43.6545 65.1049 42.9063Z" fill="#EBEBEB"/>
<path d="M77.4545 50.0933C77.4545 50.15 61.9138 50.1991 42.752 50.1991C23.5902 50.1991 8.04947 50.15 8.04947 50.0933C8.04947 50.0366 23.5864 49.9875 42.752 49.9875C61.9176 49.9875 77.4545 50.0366 77.4545 50.0933Z" fill="#E0E0E0"/>
<path d="M77.4545 38.3228C77.4545 38.3795 61.9138 38.4286 42.752 38.4286C23.5902 38.4286 8.04947 38.3795 8.04947 38.3228C8.04947 38.2662 23.5864 38.217 42.752 38.217C61.9176 38.217 77.4545 38.2662 77.4545 38.3228Z" fill="#E0E0E0"/>
<path d="M77.4545 26.5524C77.4545 26.6129 61.9138 26.6582 42.752 26.6582C23.5902 26.6582 8.04947 26.6129 8.04947 26.5524C8.04947 26.492 23.5864 26.4504 42.752 26.4504C61.9176 26.4504 77.4545 26.4957 77.4545 26.5524Z" fill="#E0E0E0"/>
<path d="M77.4545 15.3677C77.4545 15.4244 61.9138 15.4735 42.752 15.4735C23.5902 15.4735 8.04947 15.4244 8.04947 15.3677C8.04947 15.311 23.5864 15.2619 42.752 15.2619C61.9176 15.2619 77.4545 15.311 77.4545 15.3677Z" fill="#E0E0E0"/>
<path d="M137.739 16.5088V3.50278C140.295 3.50272 142.794 4.25815 144.923 5.67447C147.052 7.09079 148.717 9.10502 149.709 11.4648C150.701 13.8247 150.975 16.4252 150.498 18.9406C150.021 21.456 148.814 23.7745 147.027 25.6057C145.241 27.4368 142.955 28.6992 140.455 29.2347C137.956 29.7702 135.354 29.555 132.977 28.616C130.599 27.6771 128.55 26.0561 127.088 23.9562C125.625 21.8563 124.814 19.3708 124.756 16.8111L137.739 16.5088Z" fill="#EBEBEB"/>
<path d="M134.574 13.0023L121.587 13.297C121.586 9.82089 122.9 6.4735 125.265 3.92977C127.684 1.49741 130.944 0.0903417 134.37 0L134.574 13.0023Z" fill="#F5F5F5"/>
<path d="M33.0277 132.475V120.704C30.7154 120.704 28.4544 121.388 26.528 122.669C24.6016 123.95 23.0954 125.772 22.198 127.907C21.3007 130.042 21.0522 132.395 21.4835 134.671C21.9149 136.946 23.007 139.044 24.623 140.701C26.2391 142.358 28.3072 143.5 30.5684 143.985C32.8295 144.469 35.1832 144.275 37.3346 143.426C39.4859 142.577 41.3393 141.11 42.6627 139.211C43.986 137.311 44.7203 135.063 44.7738 132.747L33.0277 132.475Z" fill="#EBEBEB"/>
<path d="M35.8907 129.305L47.6405 129.569C47.6418 126.423 46.4514 123.394 44.3099 121.094C42.1217 118.892 39.1718 117.619 36.0718 117.538L35.8907 129.305Z" fill="#F5F5F5"/>
<path d="M109.932 45.5778H104.439V62.7592H109.932V45.5778Z" fill="#F5F5F5"/>
<path d="M118.132 49.5H112.64V62.7592H118.132V49.5Z" fill="#F5F5F5"/>
<path d="M125.725 54.8883H120.233V62.763H125.725V54.8883Z" fill="#F5F5F5"/>
<path d="M47.1879 22.8834L47.3275 22.1276C48.5194 15.704 52.9214 10.5273 58.8849 8.90245C59.6528 8.69078 60.436 8.53918 61.2273 8.44901C66.9457 7.8142 73.0413 10.4781 76.851 15.2808C79.0916 18.1072 80.6947 21.7044 83.7161 23.5144C87.6465 25.8685 92.3917 24.3306 96.4881 22.7587C100.585 21.1868 105.337 19.6526 109.26 22.0256C111.716 23.5144 113.296 26.2917 114.13 29.1408C116.336 36.698 113.794 45.011 108.781 50.4333C103.768 55.8557 96.6201 58.6632 89.3967 59.5663C79.25 60.8284 68.3338 58.3836 59.9448 51.6576C51.5559 44.9317 46.0978 33.6789 47.1879 22.8834Z" fill="#F5F5F5"/>
<path d="M51.1749 60.6545C48.7721 58.837 45.4678 58.5234 42.5596 59.3018C40.734 59.657 37.407 63.2656 37.9615 66.364C38.516 69.4625 41.4808 71.6541 44.5512 72.3229C47.946 73.0522 52.0726 71.8619 53.5249 68.6841C54.7772 65.9446 53.5626 62.4721 51.1749 60.6545Z" fill="#F5F5F5"/>
<path d="M110.656 1.83642C108.257 0.0188953 104.949 -0.294731 102.044 0.483666C100.219 0.838857 96.8879 4.45123 97.4462 7.54592C98.0044 10.6406 100.965 12.836 104.036 13.5048C107.431 14.2341 111.557 13.0438 113.01 9.866C114.262 7.12649 113.059 3.65393 110.656 1.83642Z" fill="#F5F5F5"/>
<path d="M17.3324 141.967H6.16348V163.796H17.3324V141.967Z" fill="#FF725E"/>
<path d="M41.5789 150.896H30.41V163.796H41.5789V150.896Z" fill="#FF725E"/>
<g opacity="0.79">
<path opacity="0.79" d="M41.5789 150.896H30.41V163.796H41.5789V150.896Z" fill="white"/>
</g>
<path d="M64.1091 163.796L52.9402 163.872V134.606H64.1091V163.796Z" fill="#FF725E"/>
<path d="M87.6993 148.383H76.5303V163.796H87.6993V148.383Z" fill="#FF725E"/>
<g opacity="0.79">
<path opacity="0.79" d="M87.6993 148.383H76.5303V163.796H87.6993V148.383Z" fill="white"/>
</g>
<path d="M110.89 134.606H99.7207V163.796H110.89V134.606Z" fill="#FF725E"/>
<path d="M133.857 97.277H122.688V163.796H133.857V97.277Z" fill="#FF725E"/>
<g opacity="0.79">
<path opacity="0.79" d="M133.857 97.277H122.688V163.796H133.857V97.277Z" fill="white"/>
</g>
<path d="M17.3513 152.358C17.438 152.445 15.0164 155.082 11.946 158.241C8.87556 161.4 6.31436 163.909 6.22761 163.804C6.14085 163.698 8.55871 161.079 11.6291 157.916C14.6995 154.754 17.2457 152.279 17.3513 152.358Z" fill="white"/>
<path d="M41.4921 152.551C41.5827 152.638 39.161 155.275 36.0906 158.434C33.0202 161.593 30.459 164.102 30.3722 163.996C30.2855 163.89 32.7033 161.272 35.7738 158.109C38.8442 154.946 41.4167 152.46 41.4921 152.551Z" fill="#FF725E"/>
<path d="M87.6729 152.347C87.7634 152.437 85.3418 155.071 82.2713 158.234C79.2009 161.397 76.6397 163.883 76.5718 163.796C76.5039 163.709 78.9029 161.072 81.9734 157.909C85.0438 154.746 87.5861 152.279 87.6729 152.347Z" fill="#FF725E"/>
<path d="M17.1815 142.19C17.2683 142.277 14.8466 144.914 11.7762 148.073C8.70579 151.232 6.14459 153.741 6.05784 153.635C5.97108 153.529 8.38894 150.911 11.4631 147.748C14.5373 144.585 17.0947 142.099 17.1815 142.19Z" fill="white"/>
<path d="M64.2789 152.524C64.3656 152.611 61.9478 155.249 58.8773 158.408C55.8069 161.567 53.2457 164.076 53.159 163.97C53.0722 163.864 55.4901 161.245 58.5605 158.083C61.6309 154.92 64.1921 152.434 64.2789 152.524Z" fill="white"/>
<path d="M64.1242 142.356C64.2147 142.443 61.7931 145.08 58.7227 148.239C55.6523 151.398 53.0911 153.907 53.0043 153.801C52.9176 153.696 55.3354 151.077 58.4058 147.914C61.4762 144.752 64.0412 142.265 64.1242 142.356Z" fill="white"/>
<path d="M60.6502 134.606C60.737 134.693 59.0961 136.529 56.9876 138.698C54.879 140.867 53.0949 142.56 53.0081 142.477C52.9214 142.394 54.5584 140.554 56.6707 138.381C58.7831 136.208 60.5635 134.519 60.6502 134.606Z" fill="white"/>
<path d="M133.797 152.347C133.884 152.437 131.466 155.071 128.396 158.234C125.325 161.397 122.76 163.883 122.673 163.796C122.587 163.709 125.008 161.072 128.079 157.909C131.149 154.746 133.71 152.279 133.797 152.347Z" fill="#FF725E"/>
<path d="M133.646 142.178C133.733 142.269 131.315 144.903 128.245 148.066C125.174 151.228 122.613 153.715 122.523 153.628C122.432 153.541 124.854 150.903 127.928 147.744C131.002 144.585 133.559 142.076 133.646 142.178Z" fill="#FF725E"/>
<path d="M133.646 130.846C133.733 130.937 131.315 133.574 128.245 136.733C125.174 139.892 122.613 142.401 122.523 142.296C122.432 142.19 124.854 139.571 127.928 136.408C131.002 133.246 133.559 130.759 133.646 130.846Z" fill="#FF725E"/>
<path d="M111.157 152.347C111.244 152.437 108.826 155.071 105.756 158.234C102.685 161.397 100.124 163.883 100.038 163.796C99.9508 163.709 102.369 161.072 105.439 157.909C108.509 154.746 111.071 152.279 111.157 152.347Z" fill="white"/>
<path d="M111.007 142.178C111.097 142.269 108.675 144.903 105.605 148.066C102.535 151.228 99.9583 153.715 99.8867 153.628C99.815 153.541 102.222 150.903 105.288 147.744C108.355 144.585 110.92 142.076 111.007 142.178Z" fill="white"/>
<path d="M107.453 134.519C107.54 134.606 105.918 136.408 103.828 138.574C101.739 140.739 99.9734 142.398 99.8867 142.307C99.7999 142.216 101.422 140.399 103.512 138.249C105.601 136.099 107.367 134.417 107.453 134.519Z" fill="white"/>
<path d="M133.797 119.888C133.884 119.979 131.466 122.613 128.396 125.775C125.325 128.938 122.76 131.424 122.673 131.338C122.587 131.251 125.008 128.609 128.079 125.45C131.149 122.292 133.71 119.783 133.797 119.888Z" fill="#FF725E"/>
<path d="M133.797 99.5102C133.884 99.6009 131.466 102.235 128.396 105.397C125.325 108.56 122.76 111.046 122.673 110.959C122.587 110.873 125.008 108.235 128.079 105.072C131.149 101.91 133.71 99.4195 133.797 99.5102Z" fill="#FF725E"/>
<path d="M133.646 109.72C133.733 109.811 131.315 112.444 128.245 115.607C125.174 118.77 122.613 121.256 122.523 121.169C122.432 121.082 124.857 118.441 127.928 115.282C130.998 112.123 133.559 109.629 133.646 109.72Z" fill="#FF725E"/>
<path d="M157.497 57.1669H146.943V163.796H157.497V57.1669Z" fill="#FF725E"/>
<g opacity="0.6">
<path opacity="0.6" d="M157.546 152.978C157.625 153.061 155.339 155.555 152.438 158.54C149.538 161.525 147.109 163.879 147.033 163.796C146.958 163.713 149.236 161.219 152.14 158.234C155.045 155.249 157.463 152.895 157.546 152.978Z" fill="white"/>
</g>
<g opacity="0.6">
<path opacity="0.6" d="M157.402 143.369C157.485 143.456 155.199 145.946 152.295 148.931C149.391 151.916 146.973 154.27 146.89 154.187C146.807 154.104 149.093 151.61 151.997 148.625C154.901 145.64 157.319 143.286 157.402 143.369Z" fill="white"/>
</g>
<g opacity="0.6">
<path opacity="0.6" d="M157.402 132.66C157.485 132.747 155.199 135.237 152.295 138.222C149.391 141.207 146.973 143.561 146.89 143.478C146.807 143.395 149.093 140.905 152.012 137.92C154.932 134.935 157.319 132.577 157.402 132.66Z" fill="white"/>
</g>
<g opacity="0.6">
<path opacity="0.6" d="M157.546 122.307C157.625 122.39 155.339 124.88 152.438 127.865C149.538 130.85 147.109 133.208 147.033 133.121C146.958 133.034 149.236 130.548 152.14 127.559C155.045 124.57 157.463 122.22 157.546 122.307Z" fill="white"/>
</g>
<g opacity="0.6">
<path opacity="0.6" d="M157.402 112.698C157.485 112.781 155.199 115.271 152.295 118.26C149.391 121.249 146.973 123.599 146.89 123.512C146.807 123.425 149.093 120.939 151.997 117.95C154.901 114.961 157.319 112.603 157.402 112.698Z" fill="white"/>
</g>
<g opacity="0.6">
<path opacity="0.6" d="M157.402 101.989C157.485 102.072 155.199 104.562 152.295 107.551C149.391 110.54 146.973 112.89 146.89 112.803C146.807 112.716 149.093 110.23 151.997 107.241C154.901 104.252 157.319 101.902 157.402 101.989Z" fill="white"/>
</g>
<g opacity="0.6">
<path opacity="0.6" d="M157.402 89.4175C157.485 89.5044 155.199 91.9945 152.295 94.9796C149.391 97.9647 146.973 100.319 146.89 100.236C146.807 100.153 149.093 97.6586 151.997 94.6735C154.901 91.6884 157.319 89.3343 157.402 89.4175Z" fill="white"/>
</g>
<g opacity="0.6">
<path opacity="0.6" d="M157.546 76.2603C157.625 76.3434 155.339 78.8335 152.438 81.8224C149.538 84.8113 147.109 87.1616 147.033 87.0747C146.958 86.9878 149.236 84.5015 152.14 81.5126C155.045 78.5237 157.463 76.1734 157.546 76.2603Z" fill="white"/>
</g>
<g opacity="0.6">
<path opacity="0.6" d="M157.402 63.3336C157.485 63.4167 155.199 65.9106 152.295 68.8957C149.391 71.8808 146.973 74.2349 146.89 74.1518C146.807 74.0687 149.096 71.5748 151.997 68.5897C154.898 65.6045 157.319 63.2505 157.402 63.3336Z" fill="white"/>
</g>
<g opacity="0.6">
<path opacity="0.6" d="M153.178 56.9742C153.261 57.0573 151.918 58.5763 150.183 60.3749C148.448 62.1735 146.973 63.5376 146.89 63.4545C146.807 63.3714 148.15 61.8524 149.885 60.0537C151.62 58.2551 153.095 56.891 153.178 56.9742Z" fill="white"/>
</g>
<path d="M167.568 56.2487L167.1 55.9237L166.527 55.5156L165.708 54.9904C163.896 53.8397 161.959 52.9002 159.933 52.1904C158.472 51.676 156.967 51.2965 155.437 51.0568C153.616 50.7739 151.766 50.7319 149.934 50.9321C146 51.3553 141.673 53.1993 137.909 56.498C135.937 58.2145 134.158 60.1403 132.601 62.2416C130.998 64.4483 129.399 66.8024 127.747 69.232C124.454 74.1064 121.067 79.4041 117.562 85.0078C114.058 90.6115 110.395 96.525 106.503 102.578C104.545 105.601 102.535 108.662 100.434 111.73C99.3812 113.261 98.3854 114.848 97.3632 116.431C96.341 118.014 95.3112 119.609 94.24 121.188C92.1578 124.343 89.8906 127.371 87.4503 130.257C86.2515 131.668 84.9368 132.976 83.5199 134.168C82.8201 134.758 82.0617 135.274 81.2567 135.709C80.4568 136.166 79.5621 136.432 78.6427 136.484C77.7347 136.402 76.8509 136.146 76.04 135.728C75.2252 135.35 74.4444 134.923 73.6825 134.481C72.1511 133.586 70.6988 132.611 69.2768 131.621C66.4402 129.633 63.7508 127.563 61.167 125.5C59.8769 124.464 58.612 123.431 57.3723 122.401C56.1389 121.362 54.9167 120.353 53.6946 119.378C51.2541 117.417 48.8551 115.547 46.4636 113.839C44.0722 112.131 41.6166 110.668 38.9913 109.928C36.4693 109.241 33.823 109.146 31.2587 109.652C28.9377 110.161 26.7181 111.055 24.6916 112.297C22.879 113.386 21.1784 114.652 19.6145 116.076C16.6912 118.766 14.2205 121.135 12.2175 123.085C10.2146 125.035 8.67563 126.584 7.63832 127.619L6.46145 128.81L6.05408 129.229L6.43128 128.81L7.59683 127.608C8.62282 126.554 10.1505 125.008 12.1459 123.047C14.1413 121.086 16.6195 118.694 19.5353 116.004C21.0948 114.557 22.7957 113.271 24.6124 112.165C26.651 110.92 28.8835 110.026 31.2172 109.52C33.8031 109.006 36.4724 109.096 39.0177 109.784C41.6581 110.54 44.174 111.98 46.5617 113.71C48.9494 115.441 51.3597 117.289 53.8078 119.246C55.0299 120.228 56.2571 121.236 57.4892 122.269C58.7214 123.302 59.9863 124.333 61.2839 125.364C63.8677 127.423 66.5647 129.49 69.3862 131.474C70.8044 132.464 72.2604 133.435 73.7806 134.323C74.535 134.765 75.3158 135.196 76.123 135.562C76.9104 135.964 77.7665 136.214 78.6465 136.299C79.5344 136.245 80.3979 135.986 81.1699 135.543C81.9674 135.119 82.7183 134.612 83.4105 134.032C84.8186 132.848 86.1246 131.547 87.3145 130.144C89.7487 127.268 92.0096 124.25 94.0853 121.105C95.1528 119.526 96.1863 117.935 97.2085 116.352C98.2307 114.768 99.2266 113.181 100.283 111.647C102.38 108.579 104.39 105.518 106.348 102.499C110.252 96.4533 113.892 90.5435 117.419 84.9398C120.946 79.3361 124.329 74.0384 127.63 69.1678C129.289 66.7343 130.885 64.3878 132.499 62.1773C134.066 60.0706 135.856 58.1398 137.837 56.4187C141.609 53.1313 145.981 51.2646 149.941 50.849C151.783 50.6526 153.642 50.7009 155.471 50.9926C157.005 51.2303 158.514 51.6097 159.979 52.1262C162.006 52.8449 163.942 53.7973 165.75 54.9639L166.561 55.5005L167.1 55.9237C167.413 56.1277 167.568 56.2487 167.568 56.2487Z" fill="#FF725E"/>
<path d="M36.6526 110.083C36.6393 110.515 36.4993 110.933 36.2501 111.285C36.0009 111.638 35.6536 111.909 35.2515 112.065C34.8493 112.221 34.4102 112.255 33.9889 112.163C33.5677 112.071 33.1829 111.856 32.8826 111.546C32.5823 111.236 32.3799 110.844 32.3005 110.419C32.2212 109.995 32.2685 109.556 32.4364 109.158C32.6044 108.76 32.8856 108.421 33.245 108.182C33.6044 107.943 34.0261 107.816 34.4573 107.816C34.7504 107.819 35.0399 107.881 35.3091 107.997C35.5783 108.113 35.822 108.281 36.026 108.491C36.2301 108.702 36.3905 108.951 36.4981 109.224C36.6056 109.498 36.6581 109.789 36.6526 110.083V110.083Z" fill="#FF725E"/>
<path d="M34.4573 114.115C33.657 114.133 32.8694 113.911 32.1951 113.479C31.5208 113.047 30.9904 112.423 30.6716 111.687C30.3527 110.952 30.2599 110.137 30.405 109.349C30.55 108.56 30.9264 107.833 31.486 107.259C32.0457 106.686 32.7632 106.292 33.547 106.129C34.3308 105.966 35.1454 106.04 35.8868 106.343C36.6282 106.645 37.2628 107.162 37.7096 107.828C38.1564 108.493 38.3951 109.277 38.3953 110.079C38.4064 111.137 37.9979 112.156 37.2596 112.913C36.5213 113.669 35.5135 114.102 34.4573 114.115V114.115ZM34.4573 106.421C33.7316 106.403 33.0169 106.602 32.4047 106.993C31.7925 107.384 31.3104 107.949 31.0201 108.615C30.7298 109.282 30.6445 110.02 30.775 110.735C30.9055 111.451 31.2459 112.111 31.7527 112.632C32.2596 113.152 32.9099 113.51 33.6205 113.658C34.3312 113.807 35.0699 113.74 35.7424 113.466C36.4149 113.192 36.9905 112.724 37.3959 112.12C37.8013 111.517 38.0179 110.806 38.0181 110.079C38.0282 109.122 37.659 108.2 36.9915 107.515C36.3241 106.83 35.4128 106.438 34.4573 106.425V106.421Z" fill="#FF725E"/>
<path d="M154.653 50.7507C154.639 51.1826 154.499 51.6009 154.25 51.9535C154.001 52.306 153.653 52.5773 153.251 52.7334C152.849 52.8894 152.41 52.9234 151.989 52.831C151.568 52.7386 151.183 52.524 150.883 52.2139C150.582 51.9038 150.38 51.512 150.3 51.0874C150.221 50.6627 150.268 50.2241 150.436 49.8262C150.604 49.4283 150.886 49.0888 151.245 48.85C151.604 48.6112 152.026 48.4838 152.457 48.4836C152.75 48.4875 153.039 48.5493 153.308 48.6655C153.577 48.7817 153.821 48.9499 154.025 49.1605C154.229 49.3712 154.389 49.6201 154.497 49.893C154.605 50.1658 154.658 50.4573 154.653 50.7507Z" fill="#FF725E"/>
<path d="M152.446 54.7901C151.645 54.8089 150.857 54.5882 150.183 54.1564C149.508 53.7245 148.977 53.101 148.657 52.3655C148.338 51.6299 148.245 50.8157 148.389 50.0267C148.534 49.2378 148.91 48.5099 149.469 47.936C150.029 47.3622 150.746 46.9683 151.53 46.8048C152.314 46.6413 153.129 46.7155 153.871 47.018C154.612 47.3204 155.247 47.8374 155.694 48.503C156.141 49.1685 156.38 49.9524 156.38 50.7545C156.391 51.8119 155.983 52.8305 155.246 53.587C154.508 54.3435 153.501 54.7762 152.446 54.7901V54.7901ZM152.446 47.0968C151.72 47.078 151.005 47.2765 150.392 47.6668C149.78 48.0571 149.297 48.6216 149.006 49.2881C148.715 49.9546 148.629 50.6928 148.759 51.4084C148.889 52.1241 149.229 52.7846 149.736 53.3056C150.243 53.8267 150.893 54.1845 151.604 54.3335C152.315 54.4825 153.053 54.4158 153.726 54.1419C154.399 53.8681 154.975 53.3995 155.38 52.7961C155.786 52.1927 156.003 51.4819 156.003 50.7545C156.015 49.7967 155.647 48.8733 154.98 48.1868C154.313 47.5003 153.402 47.107 152.446 47.093V47.0968Z" fill="#FF725E"/>
<path d="M7.61569 76.128V95.7618H31.8056L36.249 102V95.7618H41.5072V76.128H7.61569Z" fill="#FAFAFA"/>
<path d="M7.61571 76.128H7.77036H8.24186H10.0751L17.0156 76.1016L41.5072 76.06H41.5978V76.1469C41.5978 82.1625 41.5978 88.794 41.5978 95.7958V95.894H36.2491L36.3471 95.7958V102.34L36.1698 102.091L31.7264 95.8184L31.8056 95.8562L7.61571 95.8336H7.54404V95.7618C7.54404 89.716 7.57421 84.8037 7.58176 81.3841C7.58176 79.695 7.58176 78.3801 7.58176 77.4808C7.58176 77.0387 7.58176 76.7024 7.58176 76.4681C7.58176 76.2338 7.58176 76.128 7.58176 76.128C7.58176 76.128 7.58176 76.2527 7.58176 76.4832C7.58176 76.7137 7.58176 77.0613 7.58176 77.5072C7.58176 78.4103 7.58176 79.7328 7.60062 81.4294C7.60062 84.8302 7.62325 89.7235 7.64211 95.7618L7.56667 95.69L31.7566 95.6673H31.8056L31.832 95.7051C33.2754 97.7204 34.7579 99.7999 36.2792 101.944L36.1019 102V95.6635H41.4922L41.3941 95.7618C41.3941 88.7751 41.3941 82.1587 41.3941 76.1129L41.4846 76.2036L17.0495 76.1582L10.0901 76.1356H8.23809H7.78167L7.61571 76.128Z" fill="#263238"/>
<path d="M35.2306 83.9687C35.2306 84.0216 30.4552 84.0669 24.5634 84.0669C18.6715 84.0669 13.8923 84.0216 13.8923 83.9687C13.8923 83.9158 18.6677 83.8855 24.5634 83.8855C30.459 83.8855 35.2306 83.912 35.2306 83.9687Z" fill="#263238"/>
<path d="M35.2306 88.2952C35.2306 88.3519 30.4552 88.3934 24.5634 88.3934C18.6715 88.3934 13.8923 88.3519 13.8923 88.2952C13.8923 88.2385 18.6677 88.197 24.5634 88.197C30.459 88.197 35.2306 88.2423 35.2306 88.2952Z" fill="#263238"/>
<path d="M168.002 20.79H136.886V38.4778H142.031L141.647 38.5458L146.052 44.1722L145.766 38.4778H168.002V20.79Z" fill="#FAFAFA"/>
<path d="M168.002 20.7824C168.002 20.7824 168.002 20.8807 168.002 21.0885C168.002 21.2963 168.002 21.6024 168.002 21.9992C168.002 22.8116 168.002 23.9981 168.021 25.5171C168.021 28.5891 168.043 33.0176 168.058 38.4702V38.542H167.987L145.751 38.5647L145.845 38.4627C145.939 40.2726 146.037 42.1997 146.135 44.1608V44.4669L145.947 44.2251L141.541 38.5987L141.439 38.4702L141.598 38.44L141.975 38.372V38.5685H136.792V38.474C136.792 32.175 136.792 26.2048 136.792 20.7862V20.6955H136.883L159.368 20.7409L165.738 20.7636H167.421H167.855H167.998H167.406H165.705L159.315 20.79L136.886 20.8316L136.973 20.7447C136.973 26.1632 136.973 32.1334 136.973 38.4324L136.879 38.3342H142.02V38.5307L141.643 38.6025L141.703 38.4438L146.109 44.0701L145.935 44.1344C145.837 42.1733 145.739 40.2462 145.649 38.44V38.338H145.747L167.983 38.3606L167.911 38.4362C167.911 33.0025 167.941 28.5891 167.949 25.5284C167.949 23.9981 167.949 22.8078 167.968 21.9916C167.968 21.5911 167.968 21.2812 167.968 21.0696C167.968 20.858 168.002 20.7824 168.002 20.7824Z" fill="#263238"/>
<path d="M142.744 27.9618C142.744 27.9089 147.09 27.8636 152.446 27.8636C157.802 27.8636 162.144 27.9089 162.144 27.9618C162.144 28.0147 157.802 28.0601 152.446 28.0601C147.09 28.0601 142.744 28.0034 142.744 27.9618Z" fill="#263238"/>
<path d="M142.744 31.7405C142.744 31.6876 147.09 31.6422 152.446 31.6422C157.802 31.6422 162.144 31.6876 162.144 31.7405C162.144 31.7934 157.802 31.8387 152.446 31.8387C147.09 31.8387 142.744 31.7934 142.744 31.7405Z" fill="#263238"/>
<path d="M57.6514 47.2328C59.8526 43.6507 60.6363 39.3731 59.8483 35.2414C59.0603 31.1097 56.7577 27.4228 53.3933 24.9058C50.0289 22.3888 45.8462 21.2238 41.6677 21.64C37.4892 22.0562 33.6173 24.0234 30.8135 27.1548C28.0098 30.2861 26.4769 34.355 26.5165 38.5613C26.5561 42.7676 28.1653 46.8068 31.0275 49.8847C33.8897 52.9625 37.7979 54.8562 41.9835 55.1934C46.1691 55.5306 50.3291 54.2868 53.6456 51.7067L61.1896 53.4865L57.6514 47.2328Z" fill="white"/>
<path d="M53.7587 51.6765L53.6079 51.6538C51.2895 53.4411 48.5416 54.5842 45.6414 54.9677C44.774 55.0848 43.898 55.1252 43.0236 55.0886C42.5747 55.0622 42.1145 55.0471 41.6544 55.0093L40.2587 54.7939C36.1113 53.9611 32.4338 51.583 29.9687 48.1397C28.6025 46.2333 27.6562 44.0579 27.1925 41.7576C26.7198 39.3264 26.7893 36.8206 27.3961 34.4195C28.0157 31.9031 29.2261 29.5713 30.9268 27.618C32.6497 25.6222 34.8236 24.0677 37.2675 23.0836C39.6124 22.1569 42.135 21.7695 44.6493 21.9501C47.0311 22.1088 49.349 22.7899 51.439 23.9452C55.1908 26.0324 58.0013 29.4807 59.2923 33.5807C59.8141 35.3257 60.0684 37.1399 60.0467 38.9614C59.9719 41.8738 59.1356 44.7155 57.6213 47.2026L57.5987 47.2366L57.6213 47.2706C59.8845 51.2042 60.9897 53.0935 61.216 53.4903C60.9972 53.0897 59.9411 51.1891 57.7495 47.2404C59.2904 44.7493 60.1467 41.8945 60.2315 38.9652C60.2687 37.1226 60.0244 35.2851 59.5073 33.5164C58.2153 29.3585 55.3801 25.8555 51.5861 23.7298C49.469 22.5511 47.1186 21.8545 44.7021 21.6893C42.1493 21.4977 39.5861 21.8851 37.2034 22.8229C34.718 23.8238 32.5067 25.4042 30.7532 27.4328C29.0301 29.4145 27.8019 31.7782 27.1698 34.3288C26.556 36.769 26.489 39.3149 26.9737 41.7841C27.4453 44.1184 28.4084 46.3251 29.7989 48.2569C32.3051 51.7463 36.0438 54.1486 40.2549 54.9753L41.6694 55.1906C42.1372 55.2284 42.6011 55.2398 43.0575 55.2662C43.94 55.2977 44.8234 55.2522 45.698 55.1302C48.6099 54.7319 51.3649 53.569 53.6833 51.7596L61.2273 53.4714L53.7587 51.6765Z" fill="#263238"/>
<path d="M42.0881 32.6171L42.5672 40.1744C42.5882 40.4681 42.7142 40.7443 42.922 40.9525C43.1298 41.1607 43.4056 41.2869 43.6988 41.308V41.308C44.0122 41.3273 44.321 41.2251 44.5612 41.0225C44.8014 40.8198 44.9545 40.5324 44.9888 40.2197L45.8262 32.6284C45.8392 32.4961 45.8248 32.3625 45.7837 32.236C45.7427 32.1095 45.676 31.9929 45.5877 31.8935C45.4995 31.7941 45.3917 31.7141 45.2711 31.6585C45.1505 31.6029 45.0197 31.5729 44.8869 31.5704L43.05 31.5969C42.9186 31.5961 42.7885 31.6224 42.6677 31.6741C42.5469 31.7259 42.438 31.802 42.3478 31.8976C42.2575 31.9933 42.1879 32.1066 42.1433 32.2303C42.0986 32.3541 42.0798 32.4858 42.0881 32.6171V32.6171Z" fill="#FF725E"/>
<path d="M45.713 45.5627C45.5988 45.9092 45.3844 46.214 45.0972 46.4384C44.8099 46.6628 44.4627 46.7968 44.0993 46.8234C43.736 46.85 43.373 46.768 43.0562 46.5878C42.7394 46.4076 42.4832 46.1373 42.3198 45.8111C42.1565 45.4849 42.0934 45.1175 42.1387 44.7554C42.1839 44.3933 42.3353 44.0528 42.5739 43.777C42.8124 43.5012 43.1272 43.3024 43.4786 43.206C43.8299 43.1095 44.2019 43.1196 44.5475 43.2351C45.0097 43.3895 45.392 43.7212 45.6105 44.1575C45.829 44.5939 45.8659 45.0992 45.713 45.5627V45.5627Z" fill="#FF725E"/>
<path d="M106.808 109.535L108.298 113.767C108.298 113.767 115.205 120.119 116.219 128.624C117.234 137.13 117.238 138.985 117.238 138.985L115.099 163.796H69.0806C69.0806 163.796 67.5718 143.739 68.1225 138.071C68.6733 132.403 71.9738 125.979 71.9738 125.979L75.4817 117.47L75.5874 113.189L106.808 109.535Z" fill="#263238"/>
<path d="M108.219 114.201C108.113 114.234 108.004 114.258 107.895 114.273L106.967 114.436L103.534 114.999C100.637 115.464 96.6276 116.079 92.1917 116.703C87.7559 117.326 83.7273 117.836 80.8078 118.112C79.348 118.263 78.1674 118.362 77.3451 118.418L76.3983 118.479C76.2891 118.488 76.1794 118.488 76.0702 118.479C76.1781 118.454 76.2878 118.439 76.3983 118.434L77.3376 118.335C78.1523 118.252 79.333 118.135 80.7927 117.957C83.7085 117.632 87.7294 117.111 92.1653 116.495C96.6012 115.879 100.611 115.278 103.515 114.848L106.952 114.345L107.891 114.217C108 114.202 108.109 114.197 108.219 114.201V114.201Z" fill="#455A64"/>
<path d="M82.0941 129.229C82.0551 129.372 81.9994 129.511 81.9281 129.641C81.8074 129.905 81.6226 130.276 81.3812 130.729C80.7442 131.906 80.0336 133.042 79.2538 134.13C78.4729 135.221 77.6225 136.259 76.7076 137.24C76.3568 137.618 76.0626 137.912 75.8552 138.109C75.7541 138.219 75.6401 138.317 75.5157 138.4C75.5973 138.275 75.6922 138.16 75.7986 138.056L76.6058 137.145C77.281 136.39 78.1825 135.282 79.0916 134.013C80.0006 132.743 80.7437 131.538 81.2567 130.65C81.4943 130.234 81.698 129.894 81.8602 129.596C81.9242 129.465 82.0026 129.342 82.0941 129.229V129.229Z" fill="#455A64"/>
<path d="M136.351 64.5692C136.351 64.5692 137.298 80.4621 137.58 82.2607C137.863 84.0594 136.351 86.3303 136.351 86.3303C136.351 86.3303 132.858 86.7082 130.497 82.3552L128.988 78.9544C129.898 76.0511 130.189 72.9883 129.84 69.9651C129.271 64.8564 128.988 62.491 128.988 62.491L136.351 64.5692Z" fill="#FFBE9D"/>
<path d="M132.115 42.4151C132.53 46.2542 132.492 49.568 130.587 50.2482C130.429 50.3049 129.165 50.354 128.995 50.3729C126.826 50.6072 124.699 47.4256 124.25 43.2691C123.801 39.1126 125.197 35.5493 127.37 35.3151C127.887 35.2356 128.408 35.1839 128.931 35.1601C130.889 35.5191 131.707 38.6478 132.115 42.4151Z" fill="#455A64"/>
<path d="M138.146 56.1504C138.146 56.1504 139.738 56.6794 139.451 58.2173C139.105 59.6664 138.67 61.0925 138.146 62.4872L136.17 64.6863L129.003 62.4872C128.663 61.8229 128.495 61.0834 128.516 60.3371C128.562 59.1317 128.516 56.1504 128.516 56.1504C129.14 55.3396 129.582 54.4041 129.814 53.4071C130.055 52.1602 130.229 50.7167 130.282 50.2709C130.283 50.2524 130.289 50.2345 130.298 50.2185C130.307 50.2024 130.32 50.1885 130.335 50.1777C130.35 50.1669 130.367 50.1596 130.385 50.1561C130.403 50.1526 130.422 50.1531 130.44 50.1575C130.765 50.2244 131.066 50.378 131.311 50.6022C131.556 50.8263 131.736 51.1127 131.832 51.4309C132.209 52.6363 132.122 52.9726 132.122 52.9726L138.146 56.1504Z" fill="#FFBE9D"/>
<path d="M132.439 51.0228L131.409 49.3791L130.334 50.2104L132.33 54.1666L132.877 52.5116L132.439 51.0228Z" fill="#455A64"/>
<path d="M132.439 51.0115C132.439 51.0115 133.571 49.3111 134.604 50.1197C135.638 50.9283 135.408 51.412 134.604 52.9008C134.604 52.9008 136.649 52.6212 136.17 54.7901C136.17 54.7901 138.199 54.3896 138.146 56.1391C138.146 56.1391 139.821 57.522 139.097 58.5687C138.373 59.6154 135.608 61.6219 134.846 61.38C134.084 61.1382 133.989 60.0953 133.989 60.0953C133.989 60.0953 133.08 59.7741 132.797 59.3396C132.515 58.905 132.88 58.206 132.88 58.206C132.88 58.206 132.077 57.5107 131.877 57.318C131.677 57.1253 131.877 56.1164 131.877 56.1164L132.96 54.8695C132.96 54.8695 131.394 55.7159 131.032 55.474C130.67 55.2322 130.278 55.0319 130.591 54.5105C131.052 53.8975 131.557 53.318 132.1 52.7761L132.439 51.0115Z" fill="#FFBE9D"/>
<path d="M134.163 60.2124C134.305 59.9702 134.465 59.7391 134.642 59.521C135.017 58.944 135.485 58.4332 136.026 58.0095C136.586 57.6384 137.12 57.228 137.622 56.7814C137.808 56.5785 137.983 56.3653 138.146 56.1429C138.084 56.4313 137.937 56.6945 137.724 56.8986C137.241 57.3796 136.711 57.8113 136.143 58.1871C135.617 58.6 135.149 59.0817 134.751 59.6192C134.589 59.8479 134.39 60.0483 134.163 60.2124V60.2124Z" fill="#EB996E"/>
<path d="M132.877 58.5234C133.336 57.8297 133.848 57.1727 134.408 56.5585C134.853 56.0408 135.234 55.5421 135.57 55.2284C135.73 55.0346 135.936 54.8839 136.17 54.7901C136.17 54.8166 135.962 54.979 135.668 55.3153C135.374 55.6516 135.008 56.1504 134.559 56.6756C134.048 57.3354 133.486 57.9532 132.877 58.5234V58.5234Z" fill="#EB996E"/>
<path d="M132.96 54.8808C133.22 54.525 133.51 54.1925 133.827 53.887C134.098 53.5456 134.349 53.1899 134.582 52.8214C134.524 53.2774 134.311 53.6993 133.978 54.0155C133.701 54.3704 133.354 54.6648 132.96 54.8808V54.8808Z" fill="#EB996E"/>
<path d="M130.074 56.9439C130.317 56.9723 130.548 57.0664 130.742 57.216C131.233 57.543 131.642 57.9787 131.937 58.4894C132.227 58.9948 132.456 59.5326 132.62 60.0915C132.709 60.3161 132.763 60.5532 132.779 60.7943C132.654 60.5885 132.557 60.3676 132.488 60.1369C132.291 59.6029 132.05 59.086 131.768 58.5914C131.486 58.1042 131.112 57.6768 130.666 57.3331C130.319 57.0573 130.063 56.9742 130.074 56.9439Z" fill="#EB996E"/>
<path d="M130.431 50.22C132.284 50.0189 133.423 46.4854 132.973 42.3276C132.524 38.1698 130.657 34.9622 128.803 35.1633C126.949 35.3643 125.811 38.8979 126.261 43.0557C126.71 47.2135 128.577 50.4211 130.431 50.22Z" fill="#263238"/>
<path d="M129.757 50.1311C131.492 49.2582 132.53 46.0577 132.134 42.3962C131.738 38.7347 130.063 35.863 128.192 35.3604C126.721 36.203 125.883 39.3771 126.279 43.0423C126.676 46.7076 128.139 49.5945 129.757 50.1311Z" fill="#E0E0E0"/>
<path d="M129.825 47.1346C129.658 45.9533 129.555 44.7638 129.516 43.5714C129.411 42.3829 129.373 41.1895 129.403 39.9968C129.57 41.178 129.673 42.3675 129.712 43.56C129.817 44.7485 129.854 45.9419 129.825 47.1346V47.1346Z" fill="white"/>
<path d="M129.176 44.7314C129.08 44.4084 129.016 44.0769 128.984 43.7414C128.897 43.1255 128.807 42.2677 128.754 41.3193C128.701 40.3709 128.701 39.5056 128.72 38.8821C128.713 38.5451 128.741 38.2083 128.803 37.877C128.853 38.2095 128.872 38.546 128.859 38.8821C128.859 39.5056 128.901 40.3633 128.95 41.308C128.999 42.2526 129.071 43.1066 129.124 43.7263C129.173 44.0589 129.191 44.3954 129.176 44.7314Z" fill="white"/>
<path d="M132.439 51.0115C132.442 51.0505 132.442 51.0896 132.439 51.1286L132.386 51.4725C132.33 51.7861 132.258 52.2282 132.164 52.7837C131.945 53.0104 131.7 53.2749 131.436 53.5696C131.14 53.8826 130.872 54.2215 130.636 54.5823C130.582 54.6747 130.56 54.7821 130.572 54.8883C130.601 54.9945 130.665 55.0877 130.753 55.1529C130.852 55.2303 130.955 55.3022 131.062 55.3682C131.164 55.4235 131.283 55.4371 131.394 55.406C131.938 55.2654 132.46 55.0533 132.948 54.775L133.326 54.5861L133.058 54.8997L131.979 56.1466V56.1202C131.903 56.3127 131.868 56.5186 131.875 56.7253C131.882 56.932 131.932 57.135 132.02 57.3218C132.293 57.6785 132.636 57.9755 133.028 58.1946L133.114 58.2475L133.054 58.3307C132.824 58.6556 132.677 59.1506 133.054 59.4189C133.41 59.7024 133.809 59.9281 134.235 60.0877L134.103 60.1784V60.152C134.129 60.1784 134.042 60.0877 134.163 60.2313C134.419 60.084 134.238 60.1746 134.291 60.1482V60.1935V60.2918C134.291 60.356 134.314 60.4203 134.325 60.4845C134.354 60.6158 134.4 60.7428 134.461 60.8624C134.518 60.9754 134.598 61.0756 134.695 61.1571C134.784 61.2389 134.896 61.2916 135.015 61.3082C135.28 61.2899 135.537 61.2152 135.77 61.0891C136.03 60.9686 136.282 60.831 136.524 60.6772C136.978 60.3879 137.414 60.0712 137.829 59.7288C138.24 59.4029 138.619 59.0385 138.961 58.6405C139.123 58.464 139.216 58.2343 139.221 57.9944C139.216 57.7548 139.152 57.5201 139.036 57.3105C138.803 56.8903 138.496 56.5153 138.131 56.2033L138.097 56.1769V56.1277C138.107 55.8978 138.063 55.6687 137.969 55.4589C137.872 55.2618 137.713 55.1024 137.516 55.0055C137.11 54.831 136.66 54.7836 136.226 54.8695H136.109V54.7523C136.128 54.6201 136.155 54.4916 136.17 54.3745C136.181 54.2488 136.181 54.1223 136.17 53.9966C136.157 53.7545 136.063 53.5239 135.902 53.3429C135.732 53.1905 135.531 53.0776 135.312 53.0123C135.094 52.947 134.864 52.9308 134.638 52.965H134.499L134.563 52.8441C134.775 52.4771 134.966 52.0987 135.136 51.7105C135.208 51.5364 135.249 51.3509 135.257 51.1626C135.259 50.9877 135.208 50.8162 135.11 50.6714C134.925 50.4064 134.684 50.1857 134.404 50.0253C134.283 49.9703 134.151 49.9418 134.018 49.9418C133.884 49.9418 133.753 49.9703 133.631 50.0253C133.283 50.1817 132.973 50.4141 132.726 50.7054C132.657 50.7776 132.591 50.8533 132.53 50.9321L132.462 51.0115C132.462 51.0115 132.462 50.9775 132.511 50.9208C132.56 50.8641 132.609 50.781 132.692 50.679C132.797 50.5506 132.912 50.4306 133.035 50.32C133.2 50.1616 133.392 50.0336 133.601 49.9421C133.734 49.8832 133.878 49.8528 134.023 49.8528C134.169 49.8528 134.313 49.8832 134.446 49.9421L134.657 50.0706L134.849 50.2255C134.985 50.3353 135.105 50.4623 135.208 50.6034C135.318 50.7666 135.378 50.9582 135.381 51.1551C135.376 51.3599 135.333 51.5621 135.257 51.7521C135.091 52.1493 134.902 52.5366 134.691 52.9121L134.616 52.8063C134.859 52.7788 135.105 52.7928 135.344 52.8479C135.6 52.9035 135.834 53.0352 136.015 53.2258C136.206 53.4325 136.318 53.7001 136.332 53.9815C136.345 54.1185 136.345 54.2564 136.332 54.3933C136.332 54.5332 136.29 54.6692 136.271 54.8052L136.173 54.7032C136.644 54.6094 137.132 54.6608 137.573 54.8506C137.805 54.9647 137.993 55.1518 138.108 55.3834C138.216 55.6202 138.268 55.8789 138.259 56.1391L138.225 56.0635C138.613 56.3901 138.937 56.7844 139.183 57.2273C139.312 57.4658 139.383 57.7311 139.391 58.0019C139.387 58.143 139.359 58.2824 139.308 58.4138C139.249 58.5388 139.175 58.6567 139.089 58.7652C138.75 59.1791 138.371 59.5588 137.958 59.8988C137.537 60.2474 137.095 60.5693 136.634 60.8624C136.39 61.0177 136.139 61.159 135.879 61.2856C135.615 61.4279 135.323 61.5092 135.023 61.5236C134.868 61.496 134.722 61.4314 134.597 61.3354C134.473 61.2394 134.373 61.1147 134.306 60.9719C134.24 60.8411 134.189 60.7028 134.155 60.5601C134.155 60.4921 134.129 60.4203 134.118 60.3485V60.2389V60.1709C134.174 60.1444 133.993 60.2351 134.25 60.0877C134.374 60.2276 134.284 60.1406 134.31 60.1671V60.3674L134.182 60.3107C133.735 60.1409 133.317 59.9011 132.945 59.6003C132.849 59.5149 132.772 59.4107 132.718 59.2942C132.67 59.1745 132.653 59.0445 132.669 58.9164C132.706 58.6792 132.798 58.454 132.937 58.2589L132.963 58.3949C132.548 58.1582 132.185 57.8394 131.896 57.4578C131.777 57.2487 131.72 57.0104 131.73 56.7701C131.735 56.5437 131.774 56.3194 131.847 56.1051V56.1051L132.933 54.8619L133.031 54.9828C132.527 55.2662 131.987 55.4785 131.424 55.6138C131.352 55.6326 131.277 55.637 131.203 55.6266C131.13 55.6162 131.059 55.5913 130.994 55.5534C130.883 55.4834 130.776 55.4064 130.674 55.3229C130.559 55.2446 130.48 55.1242 130.453 54.9877C130.426 54.8512 130.454 54.7096 130.53 54.5936C130.774 54.2242 131.053 53.8799 131.364 53.5658C131.636 53.2749 131.885 53.0142 132.119 52.8101V52.8328C132.232 52.2735 132.322 51.839 132.386 51.5216L132.458 51.1853C132.424 51.053 132.435 51.0115 132.439 51.0115Z" fill="#EB996E"/>
<path d="M69.8539 121.211L55.6108 103.493C55.6108 103.493 48.0328 109.883 47.8329 110.083C47.633 110.283 59.6845 122.027 67.4209 126.573L69.8539 124.959V121.211Z" fill="#FFBE9D"/>
<path d="M81.8225 115.524C81.8225 115.524 77.3225 114.814 76.9189 115.108C76.5153 115.403 73.4297 117.481 73.4297 117.481C73.0183 118.124 72.5633 118.737 72.0681 119.318C72.0681 119.318 71.0609 120.504 70.2914 120.625C69.8811 120.7 69.4608 120.7 69.0504 120.625L67.0249 126.206C67.0249 126.206 68.5639 127.808 69.5106 127.691C70.4574 127.574 75.4893 124.785 75.4893 124.785L76.7303 124.37C76.7303 124.37 81.5848 124.547 81.8225 123.066V122.65L77.0283 122.235L75.2516 122.533L78.3296 121.373C78.3296 121.373 82.8258 121.109 83.2332 120.995C83.6406 120.882 84.1196 120.24 83.9423 119.862L82.9956 119.741C82.9956 119.741 84.0178 119.034 83.9838 118.381L79.7252 117.704C79.7252 117.704 82.294 116.416 81.8225 115.524Z" fill="#FFBE9D"/>
<path d="M83.4935 119.665C83.3662 119.662 83.2397 119.644 83.1163 119.612C82.8674 119.567 82.5052 119.507 82.0601 119.442C81.1699 119.31 79.929 119.155 78.5597 119C78.3958 118.978 78.2309 118.964 78.0656 118.959C77.9099 118.961 77.7557 118.989 77.6092 119.042C77.3187 119.155 77.0283 119.291 76.7605 119.42C76.2211 119.669 75.742 119.915 75.3535 120.138C75.0425 120.309 74.7415 120.499 74.452 120.704C74.3509 120.789 74.2423 120.863 74.1276 120.927C74.205 120.82 74.2978 120.724 74.4029 120.644C74.6798 120.413 74.9736 120.203 75.2818 120.017C75.659 119.779 76.1418 119.518 76.6812 119.261C76.9566 119.133 77.232 118.997 77.545 118.883C77.7113 118.825 77.8857 118.793 78.0618 118.789C78.236 118.793 78.4098 118.807 78.5823 118.83C79.9554 118.985 81.1926 119.163 82.0828 119.333C82.5279 119.416 82.8862 119.495 83.1314 119.563C83.256 119.582 83.3777 119.616 83.4935 119.665V119.665Z" fill="#EB996E"/>
<path d="M79.8573 117.893C79.8573 117.923 79.5103 117.776 78.9407 117.666C78.2023 117.517 77.4396 117.538 76.7104 117.727C75.9811 117.916 75.3043 118.269 74.7311 118.759C74.286 119.136 74.0672 119.424 74.0408 119.405C74.1861 119.115 74.3889 118.858 74.6368 118.649C75.2063 118.111 75.9018 117.725 76.6592 117.527C77.4165 117.329 78.2115 117.325 78.9709 117.515C79.2893 117.578 79.5912 117.707 79.8573 117.893V117.893Z" fill="#EB996E"/>
<path d="M137.611 82.8766C138.113 83.8102 138.409 84.8412 138.478 85.8995C138.478 87.377 137.614 89.9616 137.614 89.9616L136.547 90.9969C136.547 90.9969 137.248 94.2276 133.152 95.1534C129.056 96.0792 106.197 82.9069 106.197 82.9069L105.56 65.4194C107.667 66.3435 109.601 67.6214 111.278 69.198C113.673 71.5974 127.317 81.6675 127.317 81.6675C127.317 81.6675 127.871 78.1005 128.486 78.3347C129.101 78.569 137.611 82.8766 137.611 82.8766Z" fill="#E0E0E0"/>
<path d="M105.567 65.4194L93.1913 62.7744L89.97 59.4567L75.7382 59.3245L74.0257 62.4456L63.3698 68.9449C63.3698 68.9449 66.0555 86.7384 67.0362 88.8129C68.0169 90.8873 75.7835 113.752 75.7835 113.752L106.808 110.045L107.076 95.6862L107.97 88.7373C108.162 87.2512 108.193 85.7485 108.061 84.2558C107.468 77.7679 105.567 65.4194 105.567 65.4194Z" fill="#E0E0E0"/>
<path d="M59.6845 107.763L49.5001 114.749L45.9469 109.675L46.8974 108.828C46.8974 108.828 41.6506 104.483 41.9674 101.418C42.2843 98.3539 47.8178 90.4603 47.8178 90.4603C47.8178 90.4603 59.6695 71.0193 63.3434 68.9222C63.8602 68.6312 68.3187 79.4192 68.3187 83.6588C68.3187 87.8984 67.4738 87.8871 67.4738 87.8871C67.4738 87.8871 63.8866 91.3785 62.1929 94.5488C60.4993 97.7191 57.6401 101.173 55.739 102.442L59.6845 107.763Z" fill="#E0E0E0"/>
<path d="M50.0735 99.9636C50.0735 99.9636 50.1678 99.9409 50.345 99.9372C50.5972 99.9314 50.8494 99.9453 51.0994 99.9787C51.9225 100.081 52.7222 100.322 53.4645 100.693C54.1969 101.068 54.8663 101.555 55.4486 102.136C55.7045 102.364 55.9234 102.631 56.0974 102.926C55.29 102.109 54.3658 101.416 53.3551 100.87C52.6303 100.511 51.8581 100.256 51.0617 100.115C50.462 100.009 50.0697 99.9976 50.0735 99.9636Z" fill="#263238"/>
<path d="M53.1854 96.5213C53.4705 96.6938 53.7253 96.9121 53.9398 97.1674C54.4892 97.7571 54.9333 98.4371 55.2524 99.1777C55.5716 99.9186 55.7641 100.708 55.822 101.513C55.8605 101.844 55.8465 102.18 55.7805 102.507C55.7466 102.507 55.7541 102.129 55.6825 101.524C55.5849 100.744 55.3792 99.9806 55.0714 99.257C54.759 98.5344 54.3435 97.8611 53.8379 97.2581C53.4343 96.7971 53.1514 96.5477 53.1854 96.5213Z" fill="#263238"/>
<path d="M92.1955 85.4612C92.2422 85.6292 92.2725 85.8013 92.2861 85.9751C92.3191 86.1764 92.3393 86.3796 92.3464 86.5835C92.3464 86.8253 92.3841 87.0974 92.3728 87.3997C92.3615 87.702 92.3728 88.0307 92.3238 88.3859C92.2747 88.7411 92.2408 89.1114 92.1804 89.5195C91.8778 91.2303 91.2366 92.8633 90.2944 94.3221C90.0681 94.6508 89.8606 94.972 89.6343 95.2441C89.4336 95.5068 89.2195 95.759 88.9931 95.9998C88.7969 96.2265 88.5932 96.4079 88.4235 96.5742C88.2786 96.7198 88.1236 96.8549 87.9596 96.9785C87.8316 97.0961 87.6926 97.2011 87.5446 97.2921C87.5145 97.2619 88.1029 96.8009 88.8912 95.9054C89.0874 95.6786 89.2986 95.433 89.5061 95.1496C89.7135 94.8662 89.9248 94.5602 90.1435 94.2314C90.5934 93.5102 90.9808 92.7517 91.3016 91.9642C91.607 91.1656 91.8455 90.3427 92.0145 89.5044C92.0748 89.1265 92.1465 88.7486 92.1729 88.3972C92.1993 88.0458 92.2332 87.7246 92.2446 87.4261C92.2672 86.2018 92.154 85.465 92.1955 85.4612Z" fill="#263238"/>
<path d="M91.426 78.6861C91.3397 78.6339 91.2589 78.5732 91.1846 78.5048C91.03 78.3839 90.8074 78.1911 90.5094 77.9644C89.9248 77.4959 89.0459 76.8535 87.9369 76.0751C86.828 75.2967 85.4776 74.4201 83.9876 73.4301C82.3467 72.3526 80.7733 71.1753 79.2764 69.9046L79.4197 69.8857C79.2613 70.1124 79.1029 70.3618 78.9482 70.6188C78.3224 71.6848 77.8836 72.8504 77.6506 74.0649L77.5941 74.3634L77.4696 74.0876C76.2955 71.4302 75.3638 68.6719 74.6858 65.8464C74.4331 64.7921 74.2634 63.9571 74.1615 63.3563C74.1087 63.0653 74.0786 62.8386 74.0521 62.6837C74.0371 62.6065 74.0295 62.528 74.0295 62.4494C74.0533 62.5249 74.0722 62.6019 74.0861 62.6799C74.1238 62.8461 74.1691 63.0577 74.2257 63.3449C74.3464 63.9268 74.535 64.7695 74.8066 65.8161C75.5198 68.6226 76.47 71.3631 77.6469 74.0082L77.4658 74.0309C77.6992 72.7923 78.1445 71.6034 78.7823 70.5168C78.9369 70.256 79.1029 70.0029 79.2651 69.761L79.3254 69.6741L79.4084 69.7459C80.9007 71.0084 82.465 72.183 84.0933 73.2638C85.5757 74.2765 86.9147 75.1758 88.0161 75.9618C89.1176 76.7477 89.9851 77.409 90.5623 77.8964C90.8527 78.1345 91.0677 78.3347 91.2148 78.467C91.29 78.5353 91.3605 78.6085 91.426 78.6861V78.6861Z" fill="#263238"/>
<path d="M93.1913 62.7819C93.1913 62.7819 93.2328 62.831 93.297 62.9368C93.3611 63.0426 93.4516 63.1976 93.5648 63.4054C93.7911 63.8172 94.1079 64.4218 94.4776 65.1889C95.4822 67.2371 96.254 69.3918 96.7785 71.6126L96.8351 71.8733L96.6239 71.707C95.5744 70.893 94.6471 69.9323 93.8703 68.8542L94.0476 68.8013C93.9269 70.9853 93.8137 72.9804 93.7232 74.6166C93.0405 75.8446 92.4822 76.8535 92.0748 77.579L91.6146 78.3839C91.5648 78.4814 91.5054 78.5738 91.4373 78.6597C91.4736 78.5575 91.519 78.4589 91.5731 78.365C91.6825 78.1534 91.8221 77.8775 91.9994 77.5374C92.3766 76.7817 92.9311 75.7842 93.5874 74.5448V74.5788C93.6666 72.9389 93.7647 70.9437 93.8703 68.7635V68.4839L94.0325 68.7106C94.3262 69.1171 94.6423 69.5069 94.9793 69.8782C95.5187 70.4778 96.1094 71.029 96.7446 71.5256L96.5937 71.6239C96.0773 69.4108 95.3314 67.2579 94.3682 65.2002C94.0174 64.4445 93.7156 63.8135 93.5082 63.394C93.4101 63.1976 93.3309 63.0388 93.2705 62.9104C93.241 62.8696 93.2145 62.8267 93.1913 62.7819V62.7819Z" fill="#263238"/>
<path d="M108.219 84.9927C108.166 84.9927 107.842 82 107.487 78.3007C107.133 74.6014 106.895 71.5937 106.948 71.5899C107.001 71.5861 107.325 74.5788 107.702 78.2818C108.08 81.9849 108.257 84.9851 108.219 84.9927Z" fill="#263238"/>
<path d="M130.229 86.8329C129.977 86.6576 129.753 86.4448 129.565 86.2018C129.08 85.6467 128.657 85.0397 128.305 84.3919C127.951 83.7438 127.67 83.0582 127.468 82.3476C127.366 82.0581 127.307 81.7551 127.294 81.4483C127.618 82.4254 128.013 83.3776 128.475 84.2974C128.997 85.1845 129.583 86.0319 130.229 86.8329V86.8329Z" fill="#263238"/>
<path d="M128.373 87.2863C128.373 87.2863 128.297 87.2183 128.188 87.0709C128.035 86.8651 127.9 86.6463 127.784 86.4172C126.993 84.8856 126.808 83.1106 127.268 81.4483C127.336 81.1997 127.424 80.9571 127.532 80.7228C127.563 80.6326 127.608 80.5482 127.668 80.4734C127.701 80.4734 127.547 80.8513 127.403 81.4823C127.028 83.1171 127.205 84.8306 127.909 86.353C128.177 86.9084 128.403 87.2485 128.373 87.2863Z" fill="#263238"/>
<path d="M62.8983 79.8537C62.9822 79.9703 63.0507 80.0974 63.102 80.2316C63.2378 80.5188 63.4075 80.8702 63.6037 81.2896C64.045 82.2229 64.6221 83.4359 65.2596 84.7735C65.8971 86.1112 66.4817 87.377 66.8665 88.2876C67.0626 88.7449 67.2135 89.1152 67.3116 89.3759C67.3716 89.5062 67.4159 89.6432 67.4436 89.784C67.3623 89.6658 67.294 89.5391 67.2399 89.4061L66.742 88.3443L65.0823 84.8604C64.4335 83.4963 63.864 82.257 63.4754 81.3463C63.2831 80.8891 63.1322 80.5188 63.0341 80.2618C62.9742 80.1312 62.9286 79.9943 62.8983 79.8537V79.8537Z" fill="#263238"/>
<path d="M99.4491 100.587C99.428 100.743 99.3901 100.896 99.3359 101.044C99.253 101.335 99.1247 101.755 98.9587 102.272C98.6155 103.3 98.0949 104.71 97.4499 106.232C96.8049 107.755 96.1259 109.097 95.613 110.053C95.3565 110.532 95.1415 110.914 94.9868 111.186C94.9167 111.323 94.8292 111.45 94.7265 111.564C94.7748 111.414 94.8393 111.269 94.9189 111.133C95.0698 110.823 95.2622 110.442 95.4885 110C95.9713 109.029 96.6201 107.676 97.2689 106.161C97.9177 104.645 98.4608 103.247 98.838 102.231C99.0153 101.755 99.1662 101.35 99.2831 101.029C99.3198 100.875 99.3755 100.727 99.4491 100.587V100.587Z" fill="#263238"/>
<path d="M99.2266 106.935C99.1642 107.182 99.0636 107.418 98.9286 107.634C98.6419 108.175 98.3219 108.698 97.9705 109.199C97.624 109.699 97.246 110.178 96.8389 110.631C96.6779 110.83 96.49 111.005 96.2806 111.152C96.2391 111.111 97.0124 110.249 97.8234 109.085C98.6344 107.921 99.1775 106.894 99.2266 106.935Z" fill="#263238"/>
<path d="M97.0237 106.935C96.9994 106.839 96.9843 106.74 96.9785 106.64C96.9596 106.433 96.9294 106.153 96.8955 105.802C96.8313 105.072 96.7257 104.018 96.5899 102.718C96.3033 100.115 95.8619 96.5251 95.1038 92.6028C94.4703 89.2534 93.6556 85.941 92.6633 82.6802C92.4747 82.0529 92.2861 81.4899 92.1314 80.9949C91.9768 80.4999 91.8334 80.0729 91.7127 79.7291C91.592 79.3852 91.5128 79.1283 91.4449 78.928C91.4098 78.8362 91.3833 78.7413 91.3657 78.6446C91.4122 78.7318 91.4513 78.8228 91.4826 78.9167C91.5581 79.1131 91.6599 79.3739 91.7844 79.7026C91.9089 80.0313 92.0673 80.4583 92.237 80.9609C92.4068 81.4634 92.6142 82.0113 92.7953 82.6386C93.8268 85.8942 94.6619 89.209 95.2961 92.5651C96.0505 96.4948 96.4768 100.096 96.7257 102.703C96.8464 104.007 96.9294 105.065 96.9709 105.798C96.9898 106.149 97.0086 106.429 97.0199 106.64C97.027 106.739 97.0283 106.837 97.0237 106.935V106.935Z" fill="#263238"/>
<path d="M97.6612 109.418C97.832 108.839 97.9134 108.238 97.9026 107.634C97.8262 107.037 97.6622 106.453 97.416 105.904C97.416 105.904 97.5782 106.043 97.7404 106.342C97.9457 106.739 98.0676 107.173 98.0988 107.619C98.1299 108.065 98.0696 108.513 97.9214 108.934C97.8745 109.114 97.7852 109.28 97.6612 109.418V109.418Z" fill="#263238"/>
<path d="M97.0765 111.239C97.0237 111.239 96.9935 110.993 97.0086 110.699C97.0237 110.404 97.0841 110.162 97.1406 110.166C97.1972 110.17 97.2236 110.411 97.2048 110.71C97.1859 111.009 97.1293 111.243 97.0765 111.239Z" fill="#263238"/>
<path d="M56.4746 103.931C56.3305 103.998 56.1801 104.05 56.0257 104.086C55.7315 104.169 55.309 104.301 54.796 104.483C54.283 104.664 53.6644 104.906 53.0156 105.193C52.3668 105.48 51.6502 105.843 50.9222 106.247C49.6856 106.947 48.4984 107.731 47.3689 108.594C46.9314 108.927 46.5844 109.199 46.3467 109.395C46.2322 109.503 46.1056 109.596 45.9695 109.675C46.0706 109.551 46.183 109.437 46.3052 109.335C46.5278 109.123 46.8635 108.832 47.2897 108.484C48.4018 107.583 49.588 106.778 50.8354 106.077C51.5672 105.669 52.2876 105.322 52.9515 105.027C53.6154 104.732 54.2302 104.509 54.7583 104.351C55.1698 104.216 55.5877 104.103 56.0106 104.011C56.1617 103.966 56.3174 103.94 56.4746 103.931Z" fill="#263238"/>
<path d="M56.0785 103.942C56.0785 103.977 55.5617 103.943 54.7394 104.033C53.6675 104.133 52.6107 104.356 51.5898 104.698C50.5694 105.046 49.5843 105.49 48.6476 106.025C47.9272 106.436 47.516 106.724 47.4821 106.697C47.5631 106.606 47.6571 106.527 47.7612 106.463C47.946 106.319 48.2252 106.127 48.576 105.907C49.5026 105.33 50.4923 104.861 51.5257 104.509C52.5605 104.16 53.6378 103.953 54.7281 103.893C55.0572 103.874 55.3873 103.874 55.7164 103.893C55.8389 103.891 55.961 103.908 56.0785 103.942V103.942Z" fill="#263238"/>
<g opacity="0.3">
<path opacity="0.3" d="M63.6074 81.2065C63.397 82.7175 63.6176 84.2573 64.2436 85.648C64.8697 87.0388 65.8758 88.2238 67.1456 89.066C66.2592 86.7989 64.7164 83.5379 63.6074 81.2065Z" fill="black"/>
</g>
<g opacity="0.3">
<path opacity="0.3" d="M78.0241 72.3796C78.5022 73.3535 79.16 74.2279 79.9629 74.9566L79.9214 72.8897L89.3703 77.084L79.2311 69.8026C78.6766 70.7359 78.5786 71.435 78.0241 72.3683" fill="black"/>
</g>
<g opacity="0.3">
<path opacity="0.3" d="M95.4696 70.7699C95.066 70.1351 93.9608 68.7937 93.9608 68.7937C93.9269 69.7837 93.8401 71.144 93.8024 72.134L93.6591 74.5108C93.8062 73.6833 93.9156 72.0849 94.0627 71.2574L95.8091 72.9275C95.9214 72.5659 95.9491 72.1832 95.8903 71.8091C95.8314 71.435 95.6875 71.0795 95.4696 70.7699V70.7699Z" fill="black"/>
</g>
<g opacity="0.3">
<path opacity="0.3" d="M107.001 73.2034L108.204 84.1047C108.732 80.5566 109.694 78.6295 107.001 73.2034Z" fill="black"/>
</g>
<g opacity="0.3">
<path opacity="0.3" d="M133.876 88.9187C133.424 88.5408 132.424 88.3065 131.907 88.0269C129.565 86.7535 128.32 84.4183 127.407 81.9055L127.328 81.6259C127.422 84.9927 129.55 88.5861 132.609 89.9691C132.916 90.135 133.264 90.2085 133.612 90.1807C133.785 90.1603 133.944 90.0771 134.06 89.9468C134.175 89.8165 134.239 89.6483 134.238 89.4741C134.193 89.2493 134.064 89.0505 133.876 88.9187Z" fill="black"/>
</g>
<g opacity="0.3">
<path opacity="0.3" d="M85.289 98.2632C89.1666 96.9747 91.0337 93.3321 92.0371 90.1203C92.095 91.5072 91.9281 92.8943 91.543 94.2277C91.1526 95.5703 90.3421 96.7519 89.2307 97.5982C88.6741 98.0127 88.0273 98.2891 87.3435 98.4047C86.6596 98.5203 85.9581 98.4718 85.2965 98.2632" fill="black"/>
</g>
<g opacity="0.3">
<path opacity="0.3" d="M55.7202 104.181C52.8771 104.001 50.0719 104.908 47.8706 106.72C47.7084 106.852 47.5387 107.045 47.6066 107.237C47.6386 107.308 47.6928 107.366 47.7609 107.403C47.829 107.44 47.9073 107.453 47.9838 107.442C48.1383 107.414 48.2851 107.354 48.4138 107.264C50.7153 105.929 53.1666 104.873 55.7164 104.116" fill="black"/>
</g>
<g opacity="0.3">
<path opacity="0.3" d="M102.252 96.5968C102.106 96.4636 101.915 96.3897 101.718 96.3897C101.521 96.3897 101.33 96.4636 101.184 96.5968C100.896 96.8686 100.684 97.2112 100.569 97.5906L95.96 109.025L95.2546 110.714C96.8665 108.013 98.4759 105.31 100.083 102.605C101.048 100.988 102.029 99.325 102.365 97.4735C102.408 97.3275 102.42 97.1742 102.4 97.0233C102.381 96.8724 102.33 96.7272 102.252 96.5968V96.5968Z" fill="black"/>
</g>
<path d="M70.5706 32.2317C73.4298 28.2377 78.1599 25.9025 82.9843 25.0145C85.0136 24.6367 86.3451 24.9125 88.3707 25.3244C90.3914 25.6744 92.2241 26.7275 93.5459 28.2981C95.0849 30.2101 96.4126 32.3791 96.8313 34.7974C97.2651 37.2837 97.6989 39.7852 97.6725 42.3055C97.6461 44.8259 97.1255 47.3991 95.7865 49.5303L89.4797 51.0417C85.9679 51.3893 82.4071 51.7332 78.918 51.1475C75.4289 50.5618 71.9888 48.9257 69.9595 46.0312C67.1418 42.0183 67.7152 36.2257 70.5706 32.2317Z" fill="#263238"/>
<path d="M94.0778 53.2522C94.0778 53.2522 94.1947 53.4034 94.4814 53.5621C94.8965 53.7809 95.3554 53.9035 95.8242 53.921C96.5305 53.9539 97.2294 53.765 97.8234 53.3807C98.5494 52.8806 99.053 52.1173 99.2275 51.2521C99.4021 50.3869 99.234 49.4876 98.7588 48.7443C98.3604 48.1601 97.7912 47.714 97.1293 47.4671C96.6909 47.2992 96.2201 47.2333 95.7525 47.2744C95.5806 47.2729 95.4114 47.3173 95.2622 47.4029C95.2622 47.4785 95.9977 47.2744 97.0275 47.7165C97.6151 47.9743 98.1146 48.3985 98.4646 48.937C98.8688 49.6093 99.007 50.4089 98.852 51.1782C98.6971 51.9476 98.2601 52.6309 97.6272 53.0935C97.0948 53.4522 96.4696 53.6478 95.828 53.6565C94.7077 53.6565 94.1079 53.1804 94.0778 53.2522Z" fill="#E0E0E0"/>
<path d="M65.633 50.4107C65.6495 49.6821 65.8321 48.9669 66.1669 48.3199C66.5016 47.6728 66.9796 47.111 67.5643 46.6774C68.7638 45.8612 70.5065 45.8234 71.6117 46.7681L72.6867 47.9017C73.4888 48.21 74.1746 48.762 74.6481 49.4802C75.1215 50.1984 75.359 51.0469 75.3271 51.907C75.2622 52.7656 74.9546 53.588 74.4402 54.2779C73.9259 54.9678 73.2261 55.4967 72.4226 55.8028C71.6131 56.089 70.7435 56.1615 69.8979 56.0132C69.0522 55.8649 68.2589 55.501 67.5945 54.9564C66.9433 54.3986 66.428 53.699 66.088 52.9111C65.7481 52.1233 65.5924 51.268 65.633 50.4107V50.4107Z" fill="#263238"/>
<path d="M67.1795 54.6352C66.912 54.274 66.7642 53.8379 66.7571 53.3882C66.7571 52.5645 67.2814 51.4574 68.032 50.422C68.6918 49.5355 69.5151 48.7838 70.4574 48.2077C71.1779 47.7581 71.6833 47.5767 71.6607 47.5276C71.1936 47.5996 70.7458 47.7654 70.3442 48.015C69.3356 48.5563 68.4595 49.3152 67.7793 50.2369C67.4027 50.7411 67.0909 51.2908 66.8514 51.873C66.6314 52.3458 66.523 52.863 66.5345 53.3845C66.5495 53.7434 66.6717 54.0896 66.8853 54.3782C67.0437 54.5861 67.1682 54.6503 67.1795 54.6352Z" fill="#455A64"/>
<path d="M70.3857 56.3242C70.4876 56.3242 69.9331 54.4085 70.3857 52.0884C70.8384 49.7683 72.0492 48.2077 71.9549 48.1548C71.6347 48.4371 71.3699 48.7767 71.1741 49.1562C70.107 50.9425 69.6986 53.047 70.0198 55.1037C70.0647 55.5299 70.1888 55.9438 70.3857 56.3242V56.3242Z" fill="#455A64"/>
<path d="M90.1511 61.414C89.9663 59.1733 89.7965 57.3407 89.7965 57.352C89.7965 57.3634 94.9604 56.4452 95.9713 49.6776C96.473 46.3146 96.2542 40.8054 95.9336 36.3051C95.6394 32.2544 91.841 26.953 86.8468 27.2364L84.61 27.1192L76.3116 31.049C75.7216 31.1177 75.1788 31.4052 74.7899 31.8549C74.401 32.3046 74.1943 32.8839 74.2106 33.4786L76.0287 62.4229L91.4298 78.671L92.3125 74.0913L90.1511 61.414Z" fill="#FFBE9D"/>
<path d="M85.8623 48.7443C85.892 48.3992 86.0463 48.0768 86.2961 47.8374C86.5236 47.6136 86.8187 47.4715 87.1352 47.4332C87.4518 47.3949 87.7722 47.4627 88.0463 47.6258C88.3343 47.8183 88.5656 48.0845 88.7162 48.3968C88.8668 48.7091 88.9311 49.0561 88.9026 49.4018V49.4018C88.7693 49.617 88.5916 49.8011 88.3815 49.9419C88.1714 50.0827 87.9336 50.1768 87.6842 50.218C87.6067 50.2294 87.5286 50.237 87.4503 50.2406C87.053 50.2635 86.6615 50.1368 86.3527 49.8855C86.19 49.7449 86.0613 49.5691 85.9764 49.3714C85.8914 49.1737 85.8524 48.9593 85.8623 48.7443V48.7443Z" fill="#EB996E"/>
<path d="M94.1343 40.8999C94.1395 41.1258 94.0557 41.3448 93.9012 41.5095C93.7467 41.6742 93.5337 41.7714 93.3083 41.7803C93.1997 41.7901 93.0903 41.7784 92.9863 41.7456C92.8823 41.7129 92.7858 41.6599 92.7023 41.5897C92.6189 41.5194 92.5501 41.4333 92.5 41.3363C92.45 41.2393 92.4195 41.1334 92.4105 41.0246C92.4073 40.7991 92.4917 40.5813 92.6458 40.417C92.8 40.2527 93.0118 40.1549 93.2366 40.1441C93.3451 40.1343 93.4546 40.1461 93.5586 40.1788C93.6626 40.2115 93.7591 40.2645 93.8425 40.3348C93.926 40.405 93.9947 40.4911 94.0448 40.5881C94.0949 40.6851 94.1253 40.791 94.1343 40.8999V40.8999Z" fill="#263238"/>
<path d="M94.421 38.9199C94.3154 39.037 93.6666 38.542 92.7236 38.5647C91.7806 38.5873 91.1167 39.0483 91.0149 38.9425C90.9621 38.8934 91.0715 38.6894 91.3657 38.4702C91.766 38.186 92.2443 38.0329 92.7349 38.0319C93.2184 38.0263 93.6912 38.1745 94.0853 38.4551C94.3757 38.6554 94.4738 38.8594 94.421 38.9199Z" fill="#263238"/>
<path d="M89.0421 46.3222C89.0421 46.2693 89.6117 46.1635 90.5509 46.035C90.7886 46.0086 91.0111 45.9595 91.0526 45.797C91.0688 45.5513 91.011 45.3065 90.8866 45.0942C90.6565 44.5198 90.4189 43.9152 90.1662 43.2842C89.1666 40.7147 88.4424 38.5949 88.5442 38.5571C88.6461 38.5193 89.5438 40.5711 90.5434 43.1444L91.2337 44.9619C91.3845 45.2482 91.4312 45.5782 91.3657 45.8952C91.3326 45.978 91.2816 46.0525 91.2164 46.1133C91.1512 46.174 91.0733 46.2196 90.9885 46.2466C90.8572 46.2844 90.7215 46.3047 90.5849 46.3071C89.6306 46.3676 89.0459 46.3751 89.0421 46.3222Z" fill="#263238"/>
<path d="M89.7739 57.352C86.5992 57.4283 83.4655 56.6212 80.7211 55.0206C80.7211 55.0206 83.1691 59.6796 89.9135 58.9882L89.7739 57.352Z" fill="#EB996E"/>
<path d="M86.3074 46.991C86.4583 46.991 86.4696 47.9961 87.3409 48.7065C88.2123 49.4169 89.2873 49.296 89.2948 49.4358C89.2948 49.5 89.0572 49.6361 88.6046 49.6512C88.0123 49.6657 87.4339 49.4703 86.9713 49.0995C86.5298 48.7416 86.2423 48.2276 86.1678 47.6636C86.1264 47.2328 86.2395 46.9872 86.3074 46.991Z" fill="#263238"/>
<path d="M93.9835 35.0619C93.8213 35.2735 93.18 35.0619 92.4068 35.0619C91.6335 35.0619 90.9847 35.2168 90.8338 34.9939C90.766 34.8881 90.8678 34.6765 91.1507 34.4724C91.531 34.2265 91.9761 34.1004 92.4287 34.1105C92.8812 34.1206 93.3203 34.2664 93.6893 34.5291C93.9646 34.7407 94.0551 34.9561 93.9835 35.0619Z" fill="#263238"/>
<path d="M83.667 41.1039C83.6749 41.3294 83.7704 41.543 83.9331 41.699C84.0959 41.855 84.3131 41.9411 84.5383 41.939C84.6489 41.9425 84.759 41.9239 84.8623 41.8842C84.9655 41.8444 85.0598 41.7844 85.1396 41.7077C85.2193 41.6309 85.283 41.539 85.3268 41.4373C85.3706 41.3355 85.3936 41.226 85.3946 41.1152C85.3867 40.8897 85.2912 40.6762 85.1284 40.5202C84.9657 40.3642 84.7485 40.2781 84.5232 40.2802C84.4126 40.2761 84.3022 40.2944 84.1987 40.3339C84.0952 40.3735 84.0007 40.4334 83.9209 40.5103C83.841 40.5871 83.7773 40.6793 83.7337 40.7813C83.6901 40.8832 83.6674 40.993 83.667 41.1039V41.1039Z" fill="#263238"/>
<path d="M82.2299 39.6038C82.343 39.7134 82.9843 39.1957 83.9046 39.1579C84.825 39.1201 85.5379 39.5358 85.636 39.43C85.6813 39.3771 85.5643 39.1806 85.2588 38.9765C84.8469 38.7083 84.3614 38.5762 83.8707 38.5987C83.3862 38.6182 82.9208 38.793 82.5429 39.0975C82.2563 39.3468 82.1695 39.5585 82.2299 39.6038Z" fill="#263238"/>
<path d="M82.2299 38.304C82.4034 38.5042 83.0333 38.2586 83.8028 38.2095C84.5723 38.1604 85.2324 38.2851 85.372 38.0583C85.4323 37.9488 85.3191 37.7409 85.0249 37.552C84.632 37.3252 84.179 37.225 83.7274 37.2648C83.2761 37.2943 82.8452 37.4633 82.4939 37.7485C82.2299 37.979 82.1582 38.2019 82.2299 38.304Z" fill="#263238"/>
<path d="M76.6171 44.841C76.6171 44.3384 76.0211 43.1557 75.5232 43.0839C74.1955 42.8912 71.8078 43.0159 71.8191 46.3864C71.8191 50.9964 76.4436 50.0328 76.4511 49.9006C76.4587 49.7683 76.636 46.5791 76.6171 44.841Z" fill="#FFBE9D"/>
<path d="M74.6481 48.117C74.6255 48.117 74.5651 48.1737 74.4331 48.238C74.2404 48.314 74.0261 48.314 73.8334 48.238C73.3468 48.0604 72.9356 47.2857 72.9092 46.4582C72.9007 46.0687 72.9766 45.6819 73.1318 45.3246C73.1752 45.1807 73.2527 45.0495 73.3579 44.9423C73.463 44.835 73.5925 44.7549 73.7353 44.7087C73.8271 44.6845 73.9244 44.6932 74.0105 44.7332C74.0966 44.7732 74.166 44.8421 74.2068 44.9279C74.2709 45.0564 74.2408 45.147 74.2634 45.1546C74.286 45.1622 74.3615 45.079 74.3237 44.8901C74.299 44.775 74.235 44.6721 74.1427 44.5991C74.0804 44.5515 74.0094 44.5167 73.9337 44.4966C73.8579 44.4765 73.779 44.4715 73.7014 44.482C73.5123 44.5203 73.3361 44.6063 73.1895 44.7319C73.0429 44.8576 72.9309 45.0187 72.864 45.2C72.6706 45.5999 72.5762 46.0405 72.5886 46.4847C72.6226 47.4142 73.0978 48.2795 73.7655 48.4722C73.889 48.5075 74.0188 48.5146 74.1455 48.4931C74.2721 48.4715 74.3923 48.4217 74.4972 48.3475C74.6368 48.2304 74.6632 48.1284 74.6481 48.117Z" fill="#EB996E"/>
<path d="M74.8065 43.0083L76.0475 44.1419C80.7663 38.9992 89.8191 26.303 89.3175 27.0588C86.9718 26.3483 84.4858 26.2379 82.0865 26.7376C78.39 27.6142 71.4193 29.9418 71.8078 34.3515C72.1963 38.7612 74.8065 43.0083 74.8065 43.0083Z" fill="#263238"/>
<path d="M75.6402 54.4311C75.6402 54.4311 75.5459 54.5936 75.2818 54.7901C74.8988 55.0621 74.4589 55.243 73.9956 55.3191C73.2988 55.4411 72.5814 55.342 71.9436 55.0357C71.1646 54.6309 70.5724 53.9397 70.2911 53.107C70.0098 52.2743 70.0613 51.3649 70.4348 50.5694C70.7564 49.9382 71.2649 49.4222 71.8908 49.0919C72.3035 48.8677 72.761 48.7386 73.2299 48.7141C73.4014 48.6919 73.5757 48.7153 73.7353 48.7821C73.7353 48.8577 72.9809 48.7443 72.0228 49.3187C71.4714 49.648 71.0292 50.133 70.7516 50.713C70.4422 51.4293 70.4098 52.2353 70.6608 52.9743C70.9118 53.7132 71.4282 54.3322 72.1096 54.7108C72.6822 55.0015 73.328 55.1159 73.9654 55.0395C75.063 54.9148 75.6024 54.3669 75.6402 54.4311Z" fill="#E0E0E0"/>
<path d="M71.6871 47.0401C71.7135 47.0401 71.6871 46.6623 71.6645 45.9708C71.6422 45.0031 71.7091 44.0355 71.8644 43.0801C72.4064 39.9273 73.7105 36.9552 75.6628 34.4233C77.6311 31.9086 79.9731 29.7116 82.6071 27.9089C83.6104 27.2023 84.4478 26.662 85.0249 26.2955C85.3403 26.1166 85.6428 25.9159 85.9302 25.6947C85.9302 25.6947 85.8359 25.7249 85.6737 25.808C85.5115 25.8912 85.2965 26.0121 84.9797 26.1859C84.3799 26.5222 83.5237 27.0361 82.4977 27.7238C79.7953 29.4876 77.4008 31.6846 75.4101 34.2268C73.424 36.7971 72.1257 39.8327 71.6381 43.0461C71.5014 44.0147 71.466 44.9949 71.5324 45.9708C71.5492 46.2367 71.5794 46.5015 71.623 46.7643C71.6302 46.859 71.6518 46.952 71.6871 47.0401V47.0401Z" fill="#455A64"/>
<path d="M83.0258 25.6115C82.9354 25.6371 82.8481 25.6726 82.7655 25.7173C82.5995 25.7967 82.3543 25.9176 82.045 26.0952C81.4264 26.4239 80.5362 26.9189 79.4876 27.6067C78.2545 28.4035 77.067 29.2689 75.9306 30.1988C74.5107 31.3122 73.228 32.5908 72.1096 34.0077C71.54 34.761 71.0755 35.5886 70.729 36.4675C70.4164 37.2906 70.2171 38.1525 70.1368 39.0294C70.0216 40.5046 70.1207 41.9887 70.431 43.4353C70.68 44.6672 70.9666 45.642 71.1854 46.3109C71.2873 46.6472 71.374 46.9041 71.4344 47.0666C71.4564 47.1589 71.4934 47.2469 71.5437 47.3273C71.4879 46.9694 71.4073 46.6159 71.3023 46.2693C71.1326 45.5891 70.8836 44.6105 70.6649 43.3824C70.3884 41.954 70.3123 40.494 70.4386 39.0446C70.5266 38.1959 70.7257 37.3625 71.0308 36.5658C71.3726 35.7169 71.8241 34.9166 72.3736 34.1852C73.4819 32.7848 74.7476 31.5169 76.1456 30.4066C77.2662 29.4669 78.4332 28.5841 79.6423 27.7616C80.672 27.0625 81.5283 26.5373 82.1356 26.1783C82.4445 26.0094 82.7419 25.8201 83.0258 25.6115V25.6115Z" fill="#455A64"/>
<path d="M74.7236 43.1255C74.9298 42.9383 75.1179 42.732 75.2856 42.5096L76.7227 40.7487C77.9298 39.2373 79.5744 37.1817 81.3812 34.8805C83.188 32.5793 84.8024 30.4784 85.9642 28.9481L87.3259 27.1305C87.5028 26.9191 87.6594 26.6913 87.7936 26.4504C87.5857 26.6373 87.3974 26.8449 87.2316 27.0701L85.7907 28.8272C84.5874 30.3386 82.939 32.3942 81.1322 34.6991C79.3254 37.0041 77.7072 39.1012 76.5492 40.6316L75.1875 42.4491C75.0108 42.6586 74.8554 42.8851 74.7236 43.1255V43.1255Z" fill="#E0E0E0"/>
<path d="M86.6356 46.6963C86.3499 46.682 86.0636 46.6909 85.7793 46.7227C85.508 46.8122 85.2444 46.9234 84.991 47.0553C84.9457 47.0288 85.2098 46.6434 85.7454 46.53C85.8959 46.4814 86.0561 46.4711 86.2115 46.5001C86.3669 46.5292 86.5127 46.5966 86.6356 46.6963V46.6963Z" fill="#EB996E"/>
<path d="M81.8527 40.9074C81.2877 41.0796 80.6797 41.042 80.1402 40.8016C80.7131 40.7813 81.2866 40.8167 81.8527 40.9074V40.9074Z" fill="#EB996E"/>
<path d="M81.6376 41.2211C81.6376 41.2777 81.3774 41.3571 81.0568 41.4591C80.7361 41.5611 80.4683 41.648 80.4457 41.5989C80.4231 41.5498 80.6569 41.376 80.9964 41.2702C81.3359 41.1644 81.6301 41.187 81.6376 41.2211Z" fill="#EB996E"/>
<path d="M95.7148 40.3822C95.7337 40.4313 95.5149 40.5598 95.2244 40.6656C94.934 40.7714 94.685 40.8167 94.6662 40.7638C94.6473 40.7109 94.8699 40.5862 95.1565 40.4804C95.4432 40.3746 95.6959 40.3293 95.7148 40.3822Z" fill="#EB996E"/>
<path d="M95.6469 41.2853C95.6469 41.3382 95.3904 41.2853 95.1075 41.2059C94.8246 41.1266 94.6172 40.9906 94.6322 40.9377C94.6473 40.8848 94.8925 40.9377 95.1716 41.017C95.4508 41.0964 95.6658 41.2362 95.6469 41.2853Z" fill="#EB996E"/>
<path d="M172.004 163.796C172.004 163.849 133.495 163.894 86.0019 163.894C38.5085 163.894 0 163.849 0 163.796C0 163.743 38.4972 163.698 86.0019 163.698C133.507 163.698 172.004 163.739 172.004 163.796Z" fill="#263238"/>
</svg>
